<?xml version="1.0" encoding="utf-8"?>
<!-- Generator: Adobe Illustrator 24.2.1, SVG Export Plug-In . SVG Version: 6.00 Build 0)  -->
<svg version="1.1" id="Layer_1" xmlns="http://www.w3.org/2000/svg" xmlns:xlink="http://www.w3.org/1999/xlink" x="0px" y="0px"
	 viewBox="0 0 400 400" style="enable-background:new 0 0 400 400;" xml:space="preserve">
<style type="text/css">
	.st0{fill:#FFFFFF;}
</style>
<g>
	<g>
		<path class="st0" d="M233,272.7c18.2,18.2,18.2,47.8,0,66c-18.2,18.2-47.8,18.2-66,0c-18.2-18.2-18.2-47.8,0-66
			C185.2,254.5,214.8,254.5,233,272.7z"/>
	</g>
	<path class="st0" d="M312.8,251.4c-5.5,0-11.1-2.1-15.3-6.3L280,227.6c-44.1-44.1-115.9-44.1-160,0l-17.5,17.5
		c-8.5,8.5-22.2,8.5-30.6,0c-8.5-8.5-8.5-22.2,0-30.6L89.4,197c61-61,160.2-61,221.2,0l17.5,17.5c8.5,8.5,8.5,22.2,0,30.6
		C323.9,249.3,318.3,251.4,312.8,251.4z"/>
	<path class="st0" d="M378.4,174.9c-5.5,0-11.1-2.1-15.3-6.3l-17.5-17.5c-80.3-80.3-210.9-80.3-291.1,0l-17.5,17.5
		c-8.5,8.5-22.2,8.5-30.6,0c-8.5-8.5-8.5-22.2,0-30.6l17.5-17.5c97.1-97.1,255.2-97.1,352.3,0l17.5,17.5c8.5,8.5,8.5,22.2,0,30.6
		C389.4,172.8,383.9,174.9,378.4,174.9z"/>
</g>
</svg>
