<?xml version="1.0" encoding="utf-8"?>
<!-- Generator: Adobe Illustrator 24.2.1, SVG Export Plug-In . SVG Version: 6.00 Build 0)  -->
<svg version="1.1" id="Layer_1" xmlns="http://www.w3.org/2000/svg" xmlns:xlink="http://www.w3.org/1999/xlink" x="0px" y="0px"
	 viewBox="0 0 400 400" style="enable-background:new 0 0 400 400;" xml:space="preserve">
<g>
	<path d="M187.9,338.3c-5.4,2.7-9.8,7-12.4,12.4H47v24h128.4c4.4,9,13.7,15.2,24.5,15.2c10.7,0,20-6.2,24.5-15.2H353v-24H224.4
		c-2.7-5.4-7-9.8-12.4-12.4 M199.9,374.8c-6.6,0-12-5.4-12-12s5.4-12,12-12s12,5.4,12,12S206.5,374.8,199.9,374.8z"/>
</g>
<g>
	<path d="M238.8,126.9h-1.9V81.2c0-3.6-3-6.4-6.6-6.4h-11.5v-4.2c0-2.3-1.9-4.2-4.3-4.2h-29c-2.4,0-4.3,1.9-4.3,4.2v4.2h-11.5
		c-3.6,0-6.6,2.9-6.6,6.4v45.7h-1.9c-5.1,0-9.3,4.2-9.3,9.3v43.7c0,0.8,0.1,1.6,0.3,2.4l7.6,28.4H177c2,0,3.6,1.6,3.6,3.6l0,0
		c0,2-1.6,3.6-3.6,3.6h-15.3l1.5,5.6h17c2,0,3.6,1.6,3.6,3.6l0,0c0,2-1.6,3.6-3.6,3.6h-15.1l1.5,5.6h16.9c2,0,3.6,1.6,3.6,3.6
		s-1.6,3.6-3.6,3.6h-14.9l1.5,5.6h16.7c2,0,3.6,1.6,3.6,3.6c0,2-1.6,3.6-3.6,3.6H172l2.1,8c1.1,4.1,4.8,6.9,9,6.9h4.8v79.5h24.1
		v-79.5h4.8c4.2,0,7.9-2.8,9-6.9l2.1-8h-14.8c-2,0-3.6-1.6-3.6-3.6c0-2,1.6-3.6,3.6-3.6h16.7l1.5-5.6h-14.9c-2,0-3.6-1.6-3.6-3.6
		s1.6-3.6,3.6-3.6h16.9l1.5-5.6h-15.1c-2,0-3.6-1.6-3.6-3.6l0,0c0-2,1.6-3.6,3.6-3.6h17l1.5-5.6H223c-2,0-3.6-1.6-3.6-3.6l0,0
		c0-2,1.6-3.6,3.6-3.6h17.2l7.6-28.4c0.2-0.8,0.3-1.6,0.3-2.4v-43.7C248.1,131.1,243.9,126.9,238.8,126.9z M223.3,194.9
		c0,1.4-1.1,2.5-2.5,2.5h-41.7c-1.4,0-2.5-1.1-2.5-2.5v-15.5c0-1.4,1.1-2.5,2.5-2.5h41.7c1.4,0,2.5,1.1,2.5,2.5V194.9z M200,163.9
		c-15.3,0-27.7-12.4-27.7-27.7h55.5C227.7,151.5,215.3,163.9,200,163.9z M230.7,126.9h-61.4V81.2c0-0.1,0.2-0.2,0.4-0.2h14.4
		c0,0,0,0,0,0h31.8c0,0,0,0,0,0h14.4c0.2,0,0.4,0.1,0.4,0.2V126.9z"/>
	<g>
		<path d="M224,113.6H176c-0.7,0-1.2,0.6-1.2,1.2v6.5c0,0.7,0.6,1.2,1.2,1.2H224c0.7,0,1.2-0.6,1.2-1.2v-6.5
			C225.3,114.2,224.7,113.6,224,113.6z"/>
		<g>
			<path d="M176.4,86.6c-0.9,0-1.7,0.7-1.7,1.7v18c0,0.9,0.7,1.7,1.7,1.7c0.9,0,1.7-0.7,1.7-1.7v-18C178,87.3,177.3,86.6,176.4,86.6
				z"/>
			<path d="M183.1,86.6c-0.9,0-1.7,0.7-1.7,1.7v18c0,0.9,0.7,1.7,1.7,1.7c0.9,0,1.7-0.7,1.7-1.7v-18C184.8,87.3,184,86.6,183.1,86.6
				z"/>
			<path d="M189.9,86.6c-0.9,0-1.7,0.7-1.7,1.7v18c0,0.9,0.7,1.7,1.7,1.7s1.7-0.7,1.7-1.7v-18C191.5,87.3,190.8,86.6,189.9,86.6z"/>
			<path d="M196.6,86.6c-0.9,0-1.7,0.7-1.7,1.7v18c0,0.9,0.7,1.7,1.7,1.7c0.9,0,1.7-0.7,1.7-1.7v-18
				C198.3,87.3,197.5,86.6,196.6,86.6z"/>
			<path d="M203.4,86.6c-0.9,0-1.7,0.7-1.7,1.7v18c0,0.9,0.7,1.7,1.7,1.7c0.9,0,1.7-0.7,1.7-1.7v-18C205,87.3,204.3,86.6,203.4,86.6
				z"/>
			<path d="M210.1,86.6c-0.9,0-1.7,0.7-1.7,1.7v18c0,0.9,0.7,1.7,1.7,1.7s1.7-0.7,1.7-1.7v-18C211.8,87.3,211,86.6,210.1,86.6z"/>
			<path d="M216.9,86.6c-0.9,0-1.7,0.7-1.7,1.7v18c0,0.9,0.7,1.7,1.7,1.7s1.7-0.7,1.7-1.7v-18C218.5,87.3,217.8,86.6,216.9,86.6z"/>
			<path d="M223.6,86.6c-0.9,0-1.7,0.7-1.7,1.7v18c0,0.9,0.7,1.7,1.7,1.7c0.9,0,1.7-0.7,1.7-1.7v-18
				C225.3,87.3,224.5,86.6,223.6,86.6z"/>
		</g>
	</g>
</g>
</svg>
