<?xml version="1.0" encoding="utf-8"?>
<!-- Generator: Adobe Illustrator 24.2.1, SVG Export Plug-In . SVG Version: 6.00 Build 0)  -->
<svg version="1.1" id="Layer_1" xmlns="http://www.w3.org/2000/svg" xmlns:xlink="http://www.w3.org/1999/xlink" x="0px" y="0px"
	 viewBox="0 0 400 400" style="enable-background:new 0 0 400 400;" xml:space="preserve">
<style type="text/css">
	.st0{fill:#FFFFFF;}
</style>
<g>
	<path class="st0" d="M388.1,286.6l-33-81V10.4c0-5.7-4.7-10.4-10.4-10.4H55.4C49.7,0,45,4.7,45,10.4v195.2l-33,81
		c-0.5,1.3-0.4,2.5-0.4,3.7V309c0,6.4,5.3,11.7,11.8,11.7H188v27.6c-5.4,2.7-9.8,7-12.4,12.4H47.7v24h127.8
		c4.4,9,13.7,15.2,24.5,15.2c10.7,0,20-6.2,24.5-15.2h127.9v-24H224.5c-2.7-5.4-7-9.8-12.4-12.4v-27.6h164.5
		c6.5,0,11.8-5.3,11.8-11.7v-19.8C388.3,288.3,388.3,287.5,388.1,286.6z M74.3,34.7c0-2.3,1.9-4.1,4.1-4.1h243.3
		c2.3,0,4.1,1.9,4.1,4.1v136.8c0,2.2-1.9,4.1-4.1,4.1H78.4c-2.2,0-4.1-1.9-4.1-4.1V34.7z M200,384.8c-6.6,0-12-5.4-12-12
		c0-6.6,5.4-12,12-12s12,5.4,12,12C212,379.4,206.6,384.8,200,384.8z M45.5,277.3l22-60.1h265.1l22,60.1H45.5z"/>
	<rect x="125.3" y="62.3" class="st0" width="17" height="88.6"/>
	<path class="st0" d="M182.7,152.2c9.1,0,16-2.4,20.8-7.2c4.8-4.8,7.2-12,7.2-21.7h-17c0.2,5.5-0.6,9.4-2.3,11.7
		c-1.8,2.3-4.7,3.4-8.7,3.4c-3.9,0-6.7-1.4-8.3-4.3c-1.6-2.9-2.4-7.6-2.4-14.2V93.3c0-6.4,0.9-11,2.6-14c1.7-2.9,4.4-4.4,8.1-4.4
		c4.3,0,7.3,1.2,9,3.5c1.6,2.4,2.4,6.3,2.2,11.9h17c-0.3-9.9-2.7-17.3-7.3-22.1c-4.6-4.8-11.5-7.2-20.8-7.2
		c-8.6,0-15.4,2.8-20.3,8.3c-4.9,5.5-7.3,13.6-7.3,24.1v26.5c0,10.6,2.4,18.7,7.2,24.1C167,149.5,173.8,152.2,182.7,152.2z"/>
	<path class="st0" d="M247.8,138.6c-4.5,0-7.7-1.2-9.7-3.5c-2-2.3-3-6.3-3-11.9h-17c0,9.6,2.9,16.8,8.7,21.7
		c5.8,4.9,12.9,7.3,21.1,7.3c8.3,0,14.8-2.1,19.6-6.4c4.8-4.3,7.2-10.3,7.2-18.1c0-7.6-2-13.5-5.9-17.8s-10-7.8-18.2-10.7
		c-5-2.4-8.5-4.5-10.4-6.3c-2-1.8-3-4.3-3-7.2c0-3.2,0.9-5.8,2.6-7.9s4.2-3.1,7.5-3.1c3.4,0,6.1,1.2,7.9,3.7c1.8,2.5,2.7,5.8,2.7,10
		h17c0-8.1-2.5-14.6-7.5-19.7c-5-5.1-11.6-7.6-19.7-7.6s-14.8,2.2-19.8,6.7c-5.1,4.5-7.6,10.4-7.6,17.9c0,7.5,2.2,13.2,6.5,17.2
		c4.3,4,11,7.6,19.9,10.9c4.2,2,7.1,4,8.7,5.9c1.6,1.9,2.4,4.7,2.4,8.2c0,3.4-0.8,6.1-2.3,8C253.7,137.7,251.2,138.6,247.8,138.6z"
		/>
</g>
</svg>
