<?xml version="1.0" encoding="utf-8"?>
<!-- Generator: Adobe Illustrator 24.2.1, SVG Export Plug-In . SVG Version: 6.00 Build 0)  -->
<svg version="1.1" id="Layer_1" xmlns="http://www.w3.org/2000/svg" xmlns:xlink="http://www.w3.org/1999/xlink" x="0px" y="0px"
	 viewBox="0 0 256 256" style="enable-background:new 0 0 256 256;" xml:space="preserve">
<style type="text/css">
	.st0{fill:#FFFFFF;}
</style>
<path class="st0" d="M128,0.5c-40,0-75.6,18.4-99,47.2c-4.1,5-7.8,10.3-11,15.9C6.9,82.5,0.5,104.5,0.5,128c0,12.2,1.7,24,4.9,35.2
	c3.4,12,8.5,23.2,15.1,33.4C43.2,232,82.8,255.5,128,255.5c42.5,0,80.1-20.8,103.2-52.7c4.8-6.6,9-13.8,12.5-21.3
	c7.5-16.3,11.8-34.4,11.8-53.5C255.5,57.6,198.4,0.5,128,0.5z M81.6,44.2c19-5.3,30.4,5.2,38.3,11.8c0.4-7.9,4-20.4,7.9-27.5h0.4
	h0.4c4,7,7.5,19.6,7.9,27.5c7.9-6.6,19.2-17.1,38.3-11.8c-13.9,5.4-17.6,10.5-25.5,21h1.3c9.7-5.6,23.9-2.3,31.8,5.9
	c-7.2-3.3-20.2,2.1-27.2,9.8c8,1.1,22.9,8.1,26.1,13.2c-7.3-2.9-22.7-0.2-27.2,4.8c-3.9,0.1-21.1,4-26,5.6c-4.9-1.6-22.1-5.6-26-5.6
	c-4.5-5-19.9-7.7-27.2-4.8c3.2-5,18.1-12.1,26.1-13.2c-7-7.7-20-13.1-27.2-9.8c7.9-8.2,22.2-11.5,31.8-5.9h1.3
	C99.2,54.6,95.5,49.5,81.6,44.2z M145.2,117.1c1.8,1,3.7,2,5.4,3c-7.8,1.9-15.3,4.3-22.6,7.3c-0.1,0-0.1,0-0.2-0.1
	c-0.1,0-0.1,0-0.2,0.1c-7.3-3-14.8-5.5-22.6-7.3c1.8-1,3.6-2.1,5.4-3c5.5-2.9,11.2-5.4,17.1-7.6c0.1,0,0.1,0,0.2,0.1
	c0.1,0,0.1,0,0.2-0.1C134,111.7,139.7,114.2,145.2,117.1z M134.7,107.1c5.7-1.8,14-3.2,19.9-4.3c4.6,4.4,7.6,8.8,10.5,14.5
	c-2.7,0.4-5.4,0.8-8,1.3c-3.2-2-6.5-4-9.9-5.7C143.1,110.8,139,108.9,134.7,107.1z M128.1,150.8c-0.1,0-0.1-0.1-0.2-0.1
	c-0.1,0-0.1,0-0.2,0.1c-6.4-3.1-13-5.7-19.9-7.8c3.2-2,6.5-4,9.9-5.7c3.2-1.7,6.6-3.3,10-4.7c0.1,0,0.1,0,0.2,0.1
	c0.1,0,0.1,0,0.2-0.1c3.4,1.5,6.7,3,10,4.7c3.4,1.8,6.7,3.7,9.9,5.7C141.1,145.2,134.5,147.8,128.1,150.8z M130.9,157.5
	c5.1,2.7,10.1,5.7,14.8,9c-5.3,2-10.5,4.4-15.4,7c-0.7,0.4-1.5,0.8-2.2,1.2c-0.1,0-0.1-0.1-0.2-0.1c-0.1,0-0.1,0.1-0.2,0.1
	c-0.7-0.4-1.4-0.8-2.2-1.2c-5-2.6-10.1-5-15.4-7c4.7-3.3,9.7-6.3,14.8-9c0.9-0.5,1.9-1,2.8-1.4c0.1,0,0.1,0.1,0.2,0.1
	c0.1,0,0.1-0.1,0.2-0.1C129.1,156.5,130,157,130.9,157.5z M108.8,113c-3.4,1.8-6.7,3.7-9.9,5.7c-2.7-0.5-5.3-1-8-1.3
	c2.8-5.7,5.8-10.1,10.5-14.5c5.9,1.1,14.2,2.5,19.9,4.3C117,108.9,112.8,110.8,108.8,113z M93.2,122.5c-0.2,0.1-0.4,0.3-0.5,0.4
	c-1.8,1.3-3.5,2.6-5.2,3.9c0-0.1,0-0.2,0.1-0.3c-0.1,0.1-0.3,0.2-0.4,0.3c0.4-2.2,0.8-3.8,1-4.9c0.1,0,0.2,0,0.3,0c0,0,0,0,0,0
	c1.2,0.2,2.5,0.3,3.7,0.5C92.6,122.4,92.9,122.4,93.2,122.5z M86.2,133.6c3-2.6,6.2-5,9.4-7.3c1.3-0.9,2.6-1.8,3.9-2.6
	c0.1,0,0.2,0,0.2,0.1c0,0,0,0,0.1-0.1c7.6,1.6,15.1,3.7,22.2,6.4c-2.1,1-4.1,2-6.1,3c-4.7,2.5-9.3,5.2-13.6,8.2
	c-0.1,0-0.2,0-0.2-0.1c0,0-0.1,0-0.1,0.1c-3.1-0.8-6.3-1.6-9.5-2.2c-2.3-0.5-4.6-0.9-6.9-1.2C85.8,136.4,86,135,86.2,133.6z
	 M102.9,146.4c0.1,0,0.2,0,0.2,0.1c0,0,0.1,0,0.1-0.1c6.7,1.9,13.3,4.3,19.6,7.1c-6.2,3.3-12,7-17.6,11c-0.1,0-0.1,0-0.2-0.1
	c0,0-0.1,0-0.1,0.1c-5.8-2-11.8-3.7-18-4.9C91.8,154.8,97.2,150.4,102.9,146.4z M105.7,169.9c0.1,0,0.1,0.1,0.2,0.1
	c0,0,0.1-0.1,0.1-0.1c6,2.2,11.8,4.7,17.3,7.6c-5.5,3.3-10.8,7-15.7,11c-0.1,0-0.1-0.1-0.2-0.1c0,0-0.1,0.1-0.1,0.1
	c-5.2-2.2-10.6-4.1-16.1-5.7C95.7,178.1,100.5,173.8,105.7,169.9z M127.8,180.1c0.1,0,0.1,0.1,0.2,0.1c0.1,0,0.1-0.1,0.2-0.1
	c5.5,3.1,10.7,6.6,15.7,10.5c-2.1,1-4.3,2.1-6.4,3.2c-3.2,1.7-6.3,3.5-9.3,5.4c-0.1,0-0.1-0.1-0.2-0.1c-0.1,0-0.1,0.1-0.2,0.1
	c-3-1.9-6.2-3.7-9.3-5.4c-2.1-1.1-4.2-2.2-6.4-3.2C117.1,186.8,122.3,183.3,127.8,180.1z M132.6,177.5c5.6-2.9,11.4-5.5,17.3-7.6
	c0,0,0.1,0.1,0.1,0.1c0.1,0,0.1-0.1,0.2-0.1c5.2,3.9,10,8.2,14.5,12.8c-5.5,1.6-10.9,3.5-16.1,5.7c0,0-0.1-0.1-0.1-0.1
	c-0.1,0-0.1,0.1-0.2,0.1C143.4,184.4,138.1,180.8,132.6,177.5z M151,164.5c-0.1,0-0.1,0-0.2,0.1c-5.6-4.1-11.4-7.8-17.6-11
	c6.3-2.8,12.8-5.2,19.6-7.1c0,0,0.1,0,0.1,0.1c0.1,0,0.1,0,0.2-0.1c5.7,4,11,8.4,16,13.2c-6.1,1.3-12.1,2.9-18,4.9
	C151.1,164.6,151,164.5,151,164.5z M153.8,141.3c-0.1,0-0.2,0-0.2,0.1c-4.4-3-8.9-5.7-13.6-8.2c-2-1.1-4-2.1-6.1-3
	c7.2-2.7,14.6-4.9,22.2-6.4c0,0,0,0,0.1,0.1c0.1,0,0.2,0,0.2-0.1c1.3,0.8,2.5,1.7,3.8,2.6c3.3,2.3,6.5,4.8,9.6,7.4
	c0.2,1.4,0.4,2.8,0.6,4.3c-2.6,0.4-5.3,0.9-7.8,1.4C159.6,139.9,156.8,140.6,153.8,141.3C153.9,141.3,153.9,141.3,153.8,141.3z
	 M167.4,121.8C167.4,121.8,167.4,121.8,167.4,121.8c0.1,0,0.2,0,0.3,0c0.3,1.1,0.6,2.8,1,4.9c-0.1-0.1-0.3-0.2-0.4-0.3
	c0,0.1,0,0.2,0.1,0.3c-1.8-1.4-3.6-2.7-5.4-4c-0.1-0.1-0.2-0.2-0.3-0.2c0.2,0,0.4-0.1,0.6-0.1C164.7,122.2,166,122,167.4,121.8z
	 M30.9,188.3C21.5,171.9,16,152.8,16,132.6c0-26.7,9.4-51.3,25.1-70.5l9.9,11.7c-12.5,16.3-20,36.7-20,58.8
	c0,16.7,4.3,32.5,11.8,46.2L30.9,188.3z M50.1,172.9c-6.3-12.1-9.9-25.8-9.9-40.4c0-19.3,6.3-37.2,16.9-51.6l8.4,9.9
	c-8,11.9-12.7,26.3-12.7,41.7c0,11.6,2.6,22.6,7.4,32.4L50.1,172.9z M67.4,159.2c-3.6-8.2-5.6-17.2-5.6-26.6
	c0-12.7,3.6-24.6,9.8-34.6l9.2,10.8c-3.6,7.2-5.7,15.2-5.7,23.8c0,6.3,1.1,12.4,3.2,18L67.4,159.2z M84.8,145.3
	c0.1-0.9,0.2-1.9,0.3-2.7c0,0,0.1,0,0.1,0c0,0,0,0,0-0.1c0.8,0.1,1.7,0.3,2.5,0.4c3.2,0.6,6.4,1.2,9.6,1.9c-4.6,3.4-8.9,7.1-13,11
	c0-0.1,0-0.2,0-0.3c0,0-0.1,0.1-0.1,0.1C84.3,152.1,84.5,148.6,84.8,145.3z M86.6,180.7c0,0-0.1,0.1-0.1,0.1
	c-1.3-5.4-2-11.2-2.2-16.9c0,0,0.1,0,0.1,0c0,0,0,0,0-0.1c5.5,1.1,11,2.5,16.2,4.2c-5,4-9.6,8.3-14,12.9
	C86.6,180.8,86.6,180.8,86.6,180.7z M95.1,199.5C95,199.5,95,199.6,95.1,199.5c-3-3.7-5.2-8-6.8-12.7c0.1,0,0.1,0,0.1,0
	c0,0,0-0.1,0-0.1c5.2,1.4,10.2,3.2,15.2,5.1c-2.9,2.5-5.6,5.1-8.3,7.8C95.2,199.6,95.1,199.6,95.1,199.5z M109.5,212.8
	c0,0-0.1,0.1-0.1,0.1c-4.3-2.3-8.3-5.4-11.8-9.2c3.3-3.5,6.8-6.7,10.5-9.8c0.1,0,0.1,0.1,0.2,0.1c0,0,0.1-0.1,0.1-0.1
	c2.8,1.2,5.6,2.6,8.3,4c2.4,1.3,4.8,2.6,7.2,4.1c-4.9,3.4-9.6,7-14.1,10.9C109.6,212.9,109.6,212.8,109.5,212.8z M140.7,214.4h-25.5
	h-0.3c4.1-3.5,8.4-6.7,12.9-9.7c0.1,0,0.1,0.1,0.2,0.1c0.1,0,0.1-0.1,0.2-0.1c4.5,3,8.8,6.2,12.9,9.7H140.7z M146.6,212.9
	c0,0-0.1-0.1-0.1-0.1c-0.1,0-0.1,0.1-0.2,0.1c-4.4-3.9-9.1-7.6-14.1-10.9c2.3-1.4,4.7-2.8,7.2-4.1c2.7-1.4,5.5-2.8,8.3-4
	c0,0,0.1,0.1,0.1,0.1c0.1,0,0.1-0.1,0.2-0.1c3.7,3.1,7.2,6.4,10.5,9.8C154.8,207.5,150.9,210.6,146.6,212.9z M161.2,200.1
	c0,0-0.1-0.1-0.1-0.1c0.1,0,0.2,0,0.2,0C161.2,200,161.2,200.1,161.2,200.1z M161,199.6C160.9,199.6,160.9,199.5,161,199.6
	c-0.1,0-0.2,0-0.2,0.1c-2.7-2.7-5.4-5.3-8.3-7.8c4.9-2,10-3.7,15.2-5.1c0,0,0,0.1,0,0.1c0.1,0,0.1,0,0.2,0
	C166.1,191.5,163.9,195.8,161,199.6z M169.4,180.8c0,0-0.1-0.1-0.1-0.1c0,0.1,0,0.2-0.1,0.3c-4.4-4.6-9-8.9-14-12.9
	c5.3-1.7,10.7-3.1,16.2-4.2c0,0,0,0,0,0.1c0,0,0.1,0,0.1,0C171.4,169.6,170.7,175.3,169.4,180.8z M171.6,155.6c0,0.1,0,0.2,0,0.3
	c-4.1-3.9-8.4-7.6-13-11c2.7-0.6,5.4-1.2,8.1-1.7c1.3-0.2,2.7-0.5,4-0.7c0,0,0,0,0,0.1c0,0,0.1,0,0.1,0c0.2,1.6,0.3,3.2,0.4,4.9
	c0.2,2.7,0.3,5.4,0.4,8.2C171.7,155.7,171.7,155.6,171.6,155.6z M176.7,152.4c2.5-6.1,3.9-12.8,3.9-19.8c0-8.7-2.1-17-5.9-24.2
	l9-11.1c6.5,10.2,10.3,22.3,10.3,35.3c0,10.5-2.5,20.5-6.9,29.4L176.7,152.4z M193.8,168.2c5.8-10.6,9-22.7,9-35.6
	c0-15.8-4.9-30.5-13.3-42.6l8.2-10.1c11.1,14.7,17.7,32.9,17.7,52.7c0,16.2-4.4,31.4-12.1,44.4L193.8,168.2z M221.3,193.7
	l-11.2-10.4c9.1-14.8,14.4-32.1,14.4-50.7c0-22.6-7.8-43.5-20.9-60l9.7-12c16.4,19.5,26.3,44.6,26.3,71.9
	C239.6,155.1,232.9,176.1,221.3,193.7z"/>
</svg>
