<?xml version="1.0" encoding="utf-8"?>
<!-- Generator: Adobe Illustrator 23.0.4, SVG Export Plug-In . SVG Version: 6.00 Build 0)  -->
<svg version="1.1"
	 id="Layer_1" inkscape:version="0.92.2 2405546, 2018-03-11" sodipodi:docname="brand-solid-blue.svg" xmlns:cc="http://creativecommons.org/ns#" xmlns:dc="http://purl.org/dc/elements/1.1/" xmlns:inkscape="http://www.inkscape.org/namespaces/inkscape" xmlns:rdf="http://www.w3.org/1999/02/22-rdf-syntax-ns#" xmlns:sodipodi="http://sodipodi.sourceforge.net/DTD/sodipodi-0.dtd"
	 xmlns="http://www.w3.org/2000/svg" xmlns:xlink="http://www.w3.org/1999/xlink" x="0px" y="0px" viewBox="0 0 256 256"
	 style="enable-background:new 0 0 256 256;" xml:space="preserve">
<sodipodi:namedview  bordercolor="#666666" borderopacity="1" gridtolerance="10" guidetolerance="10" id="namedview3887" inkscape:current-layer="Layer_1" inkscape:cx="65.702703" inkscape:cy="119" inkscape:pageopacity="0" inkscape:pageshadow="2" inkscape:window-height="974" inkscape:window-maximized="1" inkscape:window-width="1920" inkscape:window-x="900" inkscape:window-y="286" inkscape:zoom="3.2647059" objecttolerance="10" pagecolor="#ffffff" showgrid="false">
	</sodipodi:namedview>
<title  id="title3880">cc-logo-wip2</title>
<g>
	<path d="M183.8,94.6c-1.2,0-2.5,0.1-3.9,0.3l-2.4,0.4v-2.4c0-0.1,0-0.2,0-0.3l0,0c0-11.1-9-20.1-20.2-20.1c-2.2,0-4.3,0.4-6.4,1.1
		l-2.2,0.8l-0.5-2.3c-3.2-16-17.3-27.6-33.6-27.6c-18.9,0-34.3,15.4-34.3,34.3c0,5.2,1.1,10.1,3.3,14.7l2.2,4.5l-4.7-1.7
		c-2.7-1-5.6-1.5-8.4-1.5c-13.4,0-24.4,10.9-24.4,24.4c0,13.4,10.9,24.4,24.4,24.4h112.6v0l1.8-0.2c5.8-0.8,11.1-3.6,15-8
		c3.9-4.4,6.1-10.2,6.1-16.1C208.1,105.5,197.2,94.6,183.8,94.6z"/>
	<path d="M128,3C59,3,3,59,3,128s56,125,125,125c69,0,125-56,125-125S197,3,128,3z M221,122.4c-2.3,16.8-13.1,29.2-29,33.1
		c-1.5,0.7-3.1,1.1-4.7,1.1h-51.7l35,32.4l-25.5-1.1l26.8,26.3l10.3,10.4l-97.3-54.8l24.3-0.1l-13.4-13.2H84.3
		c-8.2,0-17.6-0.4-26-3.6c-8.8-3.4-15.2-9.3-19.7-18.2c-5.3-10.6-5.3-22,0-32c5.7-10.6,16.7-18.2,29-20.3c-0.8-10.5,1.8-21.1,7.2-30
		c6.1-10,15.6-17,26.6-19.7c4.1-1,8.3-1.5,12.4-1.5c9.6,0,18.8,2.7,26.7,7.9c7.5,5,13.5,12,17.3,20.4c6.9,0.3,13.7,2.5,19.2,6.4
		c5.9,4,10,9.5,12.1,16c8.1,1.2,15.3,4.9,20.9,10.7c5.8,6,9.6,13.8,10.8,22.6c0.3,1.2,0.5,2.4,0.4,3.7
		C221.4,120.1,221.3,121.2,221,122.4z"/>
</g>
</svg>
