<svg width="24" height="30" xmlns="http://www.w3.org/2000/svg">
 <g>
  <title>background</title>
  <rect x="-1" y="-1" width="26" height="32" id="canvas_background" fill="none"/>
 </g>

 <g>
  <title>Layer 1</title>
  <path fill="#ffffff" d="m20,19l0,-12l-16,0l0,12l16,0m0,-16a2,2 0 0 1 2,2l0,14a2,2 0 0 1 -2,2l-16,0a2,2 0 0 1 -2,-2l0,-14c0,-1.11 0.9,-2 2,-2l16,0m-7,14l0,-2l5,0l0,2l-5,0m-3.42,-4l-4.01,-4l2.83,0l3.3,3.3c0.39,0.39 0.39,1.03 0,1.42l-3.28,3.28l-2.83,0l3.99,-4z" id="svg_1"/>
  <rect stroke="#fff" fill="#ffffff" stroke-width="0" x="2.088015" y="24.24998" width="19.948971" height="2.110961" id="svg_3"/>
 </g>
</svg>