<?xml version="1.0" encoding="utf-8"?>
<!-- Generator: Adobe Illustrator 24.2.3, SVG Export Plug-In . SVG Version: 6.00 Build 0)  -->
<svg version="1.1" id="Layer_1" xmlns="http://www.w3.org/2000/svg" xmlns:xlink="http://www.w3.org/1999/xlink" x="0px" y="0px"
	 viewBox="0 0 256 256" style="enable-background:new 0 0 256 256;" xml:space="preserve">
<path d="M209,143.4c-6.7,0-12.6,3.1-16.5,8l-28.2-12.2c1.4-4,2.1-8.2,2.1-12.6c0-19.5-14.6-35.7-33.5-38.2V74.1
	c9.2-2.2,16-10.5,16-20.4c0-11.6-9.4-21-21-21s-21,9.4-21,21c0,9.9,6.8,18.1,16,20.4v14.3c-18.9,2.5-33.5,18.6-33.5,38.2
	c0,9.8,3.7,18.8,9.8,25.6l-42.6,48.9c-2.9-1.5-6.2-2.4-9.8-2.4c-11.6,0-21,9.4-21,21c0,11.6,9.4,21,21,21s21-9.4,21-21
	c0-4.4-1.4-8.6-3.8-12l42.6-49c6.1,4,13.3,6.3,21.1,6.3c13.2,0,25-6.7,31.9-16.9l28.5,12.4c-0.2,1.3-0.4,2.6-0.4,3.9
	c0,11.6,9.4,21,21,21s21-9.4,21-21C230,152.8,220.6,143.4,209,143.4z M128,158.1c-17.4,0-31.5-14.1-31.5-31.5s14.1-31.5,31.5-31.5
	s31.5,14.1,31.5,31.5c0,3.7-0.6,7.3-1.8,10.6l-1.6,3.8C150.8,151.1,140.2,158.1,128,158.1z"/>
</svg>
